<svg width="24" height="25" viewBox="0 0 24 25" fill="none" xmlns="http://www.w3.org/2000/svg">
<path opacity="0.4" d="M16.19 2.5H7.81C4.17 2.5 2 4.67 2 8.31V16.68C2 20.33 4.17 22.5 7.81 22.5H16.18C19.82 22.5 21.99 20.33 21.99 16.69V8.31C22 4.67 19.83 2.5 16.19 2.5Z" fill="#191A1A"/>
<path d="M15.8902 8.61031C14.4102 7.14031 12.0102 7.14031 10.5402 8.61031C9.51019 9.63031 9.20019 11.1103 9.60019 12.4103L7.25019 14.7603C7.09019 14.9303 6.97019 15.2603 7.01019 15.5003L7.16019 16.5903C7.21019 16.9503 7.55019 17.2903 7.91019 17.3403L9.00019 17.5003C9.24019 17.5303 9.57019 17.4303 9.74019 17.2503L10.1502 16.8403C10.2502 16.7503 10.2502 16.5903 10.1502 16.4903L9.18019 15.5203C9.04019 15.3803 9.04019 15.1403 9.18019 14.9903C9.32019 14.8503 9.56019 14.8503 9.71019 14.9903L10.6802 15.9603C10.7702 16.0503 10.9302 16.0503 11.0302 15.9603L12.0902 14.9103C13.3802 15.3103 14.8602 15.0003 15.8902 13.9803C17.3702 12.4903 17.3702 10.0903 15.8902 8.61031ZM13.2502 12.5003C12.5602 12.5003 12.0002 11.9403 12.0002 11.2503C12.0002 10.5603 12.5602 10.0003 13.2502 10.0003C13.9402 10.0003 14.5002 10.5603 14.5002 11.2503C14.5002 11.9403 13.9402 12.5003 13.2502 12.5003Z" fill="#191A1A"/>
</svg>
