<svg width="24" height="25" viewBox="0 0 24 25" fill="none" xmlns="http://www.w3.org/2000/svg">
<path d="M16.24 2.5H7.76C5 2.5 4 3.5 4 6.31V18.69C4 21.5 5 22.5 7.76 22.5H16.23C19 22.5 20 21.5 20 18.69V6.31C20 3.5 19 2.5 16.24 2.5Z" fill="#B16610"/>
<path d="M14 6.75H10C9.59 6.75 9.25 6.41 9.25 6C9.25 5.59 9.59 5.25 10 5.25H14C14.41 5.25 14.75 5.59 14.75 6C14.75 6.41 14.41 6.75 14 6.75Z" fill="#DBB991"/>
<path d="M12 19.7998C12.9665 19.7998 13.75 19.0163 13.75 18.0498C13.75 17.0833 12.9665 16.2998 12 16.2998C11.0335 16.2998 10.25 17.0833 10.25 18.0498C10.25 19.0163 11.0335 19.7998 12 19.7998Z" fill="#DBB991"/>
</svg>
