<svg width="24" height="25" viewBox="0 0 24 25" fill="none" xmlns="http://www.w3.org/2000/svg">
<path opacity="0.4" d="M20.4098 7.46043V10.3004L7.39984 19.8404L4.76984 17.8704C4.11984 17.3804 3.58984 16.3304 3.58984 15.5204V7.46043C3.58984 6.34043 4.44984 5.10043 5.49984 4.71043L10.9698 2.66043C11.5398 2.45043 12.4598 2.45043 13.0298 2.66043L18.4998 4.71043C19.5498 5.10043 20.4098 6.34043 20.4098 7.46043Z" fill="#191A1A"/>
<path d="M20.4098 11.6699V15.5199C20.4098 16.3299 19.8798 17.3799 19.2298 17.8699L13.7598 21.9599C13.2798 22.3199 12.6398 22.4999 11.9998 22.4999C11.3598 22.4999 10.7198 22.3199 10.2398 21.9599L8.31982 20.5299L20.4098 11.6699Z" fill="#191A1A"/>
</svg>
