<svg width="24" height="25" viewBox="0 0 24 25" fill="none" xmlns="http://www.w3.org/2000/svg">
<path d="M12 12.5C14.7614 12.5 17 10.2614 17 7.5C17 4.73858 14.7614 2.5 12 2.5C9.23858 2.5 7 4.73858 7 7.5C7 10.2614 9.23858 12.5 12 12.5Z" fill="#B16610"/>
<path d="M12.0002 15C6.99018 15 2.91016 18.36 2.91016 22.5C2.91016 22.78 3.13016 23 3.41016 23H20.5902C20.8702 23 21.0902 22.78 21.0902 22.5C21.0902 18.36 17.0102 15 12.0002 15Z" fill="#B16610"/>
<path d="M21.43 15.2403C20.53 14.3403 19.8201 14.6303 19.2101 15.2403L15.67 18.7804C15.53 18.9204 15.4 19.1803 15.37 19.3703L15.18 20.7203C15.11 21.2103 15.45 21.5503 15.94 21.4803L17.29 21.2903C17.48 21.2603 17.75 21.1303 17.88 20.9903L21.42 17.4503C22.04 16.8503 22.33 16.1403 21.43 15.2403Z" fill="#DBB991"/>
</svg>
