<svg width="24" height="25" viewBox="0 0 24 25" fill="none" xmlns="http://www.w3.org/2000/svg">
<path opacity="0.4" d="M16.8198 2.41016H7.17982C5.05982 2.41016 3.31982 4.15016 3.31982 6.27016V20.3602C3.31982 22.1602 4.60982 22.9202 6.18982 22.0502L11.0698 19.3402C11.5898 19.0502 12.4298 19.0502 12.9398 19.3402L17.8198 22.0502C19.3998 22.9302 20.6898 22.1702 20.6898 20.3602V6.27016C20.6798 4.15016 18.9498 2.41016 16.8198 2.41016Z" fill="#191A1A"/>
<path d="M11.0898 13.7504C10.8998 13.7504 10.7098 13.6804 10.5598 13.5304L9.05979 12.0304C8.76979 11.7404 8.76979 11.2604 9.05979 10.9704C9.34979 10.6804 9.82978 10.6804 10.1198 10.9704L11.0898 11.9404L14.5598 8.47043C14.8498 8.18043 15.3298 8.18043 15.6198 8.47043C15.9098 8.76043 15.9098 9.24043 15.6198 9.53043L11.6198 13.5304C11.4698 13.6804 11.2798 13.7504 11.0898 13.7504Z" fill="#191A1A"/>
</svg>
